<?xml version="1.0" encoding="UTF-8" standalone="no"?>
<svg
   width="467.35001"
   height="91.190247"
   viewBox="0 0 410 80"
   class="css-1j8o68f"
   version="1.1"
   id="svg19"
   sodipodi:docname="logo1.svg"
   inkscape:version="1.1-dev (278aa57, 2020-11-27)"
   xmlns:inkscape="http://www.inkscape.org/namespaces/inkscape"
   xmlns:sodipodi="http://sodipodi.sourceforge.net/DTD/sodipodi-0.dtd"
   xmlns="http://www.w3.org/2000/svg"
   xmlns:svg="http://www.w3.org/2000/svg">
  <sodipodi:namedview
     pagecolor="#ffffff"
     bordercolor="#666666"
     borderopacity="1"
     objecttolerance="10"
     gridtolerance="10"
     guidetolerance="10"
     inkscape:pageopacity="0"
     inkscape:pageshadow="2"
     inkscape:window-width="640"
     inkscape:window-height="480"
     id="namedview21"
     showgrid="false"
     inkscape:zoom="2.3280197"
     inkscape:cx="233.46023"
     inkscape:cy="45.532262"
     inkscape:current-layer="svg19" />
  <defs
     id="SvgjsDefs3711" />
  <g
     id="SvgjsG3712"
     featurekey="rootContainer"
     fill="#1e2022">
    <rect
       width="410"
       height="80"
       rx="10"
       id="rect3"
       x="0"
       y="0" />
  </g>
  <g
     id="SvgjsG3713"
     featurekey="symbolFeature-0"
     transform="matrix(14.141575,0,0,14.141575,6.4665113,4.8463481)"
     fill="#c9d6df">
    <g
       id="g10">
      <path
         fill="#c9d6df"
         d="M 2.501,4.281 0.958,3.391 0.957,1.61 2.499,0.718 4.042,1.609 4.043,3.389 Z M 1.408,3.132 2.501,3.762 3.593,3.13 3.592,1.869 2.499,1.238 1.407,1.87 Z"
         id="path6" />
      <path
         fill="#c9d6df"
         d="M 2.5,3.433 1.693,2.967 1.692,2.034 2.499,1.568 3.308,2.034 V 2.966 Z M 2.143,2.707 2.5,2.913 2.857,2.706 V 2.294 L 2.5,2.088 2.143,2.294 Z"
         id="path8" />
    </g>
  </g>
  <g
     id="SvgjsG3714"
     featurekey="nameFeature-0"
     transform="matrix(0.97630167,0,0,0.97630167,80.741131,1.9444524)"
     fill="#c9d6df">
    <path
       d="m 34.859,35.3 0.08027,4.6484 -2.3241,0.04004 c -0.03008,5.08e-4 -2.055,0.03426 -6.0152,0.03426 -2.0063,0 -4.5092,-0.0089 -7.5012,-0.0348 -4.8264,-0.04211 -8.6856,-1.0842 -11.47,-3.0979 -2.767,-2.0014 -4.2908,-4.9124 -4.2908,-8.1972 0,-3.2826 1.5371,-6.2004 4.328,-8.2148 2.766,-1.9969 6.7232,-3.0621 11.444,-3.0804 8.882,-0.03426 13.438,5.47e-4 13.483,8.2e-4 l 2.3244,0.01832 -0.03664,4.6492 -2.3244,-0.01832 c -0.04473,-5.07e-4 -4.5784,-0.03504 -13.429,-7.81e-4 -6.8716,0.02668 -11.14,2.5732 -11.14,6.6464 0,1.8039 0.79624,3.2946 2.3662,4.43 1.9587,1.4167 4.9968,2.1832 8.7852,2.2161 8.8288,0.07715 13.352,0.0018 13.396,10e-4 z m 36.67,-16.001 c 1.8355,1.8198 1.8204,4.452 1.7971,8.4364 -0.0018,0.29664 -0.0034,0.604 -0.0047,0.92236 -0.0089,2.3647 -0.01519,4.0732 -0.26344,5.514 -0.21137,1.2284 -0.69948,2.9991 -2.4872,4.1908 -2.2642,1.5093 -5.6464,1.5434 -13.056,1.6174 -1.1572,0.01152 -2.2245,0.02016 -3.2091,0.02016 -5.8708,0 -8.822,-0.31074 -10.708,-2.1844 -1.964,-1.9514 -1.953,-4.8252 -1.9368,-9.1752 0.01805,-4.8536 0.02902,-7.7832 2.4894,-9.602 2.1227,-1.569 5.2056,-1.6103 11.96,-1.7011 l 1.3479,-0.01856 c 8.4176,-0.12031 11.902,-0.17027 14.071,1.9805 z m -2.866,8.409 c 0.01309,-2.2896 0.02691,-4.6576 -0.41728,-5.0976 -0.55112,-0.54644 -3.0246,-0.67276 -6.3168,-0.67276 -1.3547,0 -2.8484,0.02145 -4.4036,0.04367 l -1.3521,0.01855 c -4.8388,0.06488 -8.3348,0.11195 -9.25,0.78812 -0.5776,0.42692 -0.587,2.9488 -0.59796,5.8692 -0.0102,2.7118 -0.01988,5.2732 0.56032,5.8496 0.9108,0.90508 5.8276,0.85564 10.583,0.80856 5.4604,-0.05441 9.4056,-0.09391 10.516,-0.8342 0.65372,-0.4358 0.66208,-2.7032 0.67384,-5.8416 0.0011,-0.32148 0.0029,-0.632 0.0047,-0.93176 z m 27.293,0.418 15.938,-10.625 v 22.5 h -4.6954 V 26.275 l -11.242,7.4944 -11.242,-7.4944 v 13.726 h -4.6954 v -22.5 z M 143.128,16.95 c 2.9747,0 7.4,1.8319 7.4,6.8776 0,5.0457 -4.1128,6.8776 -6.8776,6.8776 h -20.344 l -0.0335,9.0684 -4.6952,-0.01754 0.0756,-20.455 v -2.3514 h 0.009 v -0.0086 l 2.3477,0.0086 h 22.118 z m 1.823,8.697 c 0.43632,-0.24144 0.8826,-0.64608 0.88236,-1.819 0,-0.94328 -0.31914,-1.4539 -1.139,-1.8214 -0.745,-0.33402 -1.5585,-0.36098 -1.5661,-0.36098 h -19.779 v 4.3645 h 20.281 c 0.2048,-0.0071 0.81636,-0.08422 1.3204,-0.36305 z m 16.963,9.591 h 27.18 v 4.6954 h -31.875 v -22.815 h 4.6954 v 18.119 z m 50.237,-19.817 18.353,24.38 h -5.9015 l -5.132,-6.7948 h -14.639 l -5.0572,6.7948 h -5.8354 z m -3.799,12.89 h 7.5966 l -3.7984,-5.0644 z m 31.6356,11.73822 h -4.6491 v -22.591 h 4.6491 z M 273.878,17.185 h 4.6952 v 22.5 L 251.3942,25.489 V 40 h -4.6954 V 17.5 l 27.18,14.196 V 17.185 Z m 11.3805,-0.235 h 31.875 v 4.6954 h -13.591 v 18.186 h -4.6951 v -18.186 h -13.589 V 16.95 Z"
       id="path13" />
  </g>
  <g
     id="SvgjsG3715"
     featurekey="nameFeature-1"
     transform="matrix(0.48952069,0,0,0.48952069,82.365393,43.451102)"
     fill="#c9d6df">
    <path
       d="M 19.276,28.126 35.214,17.501 v 22.5 H 30.5186 V 26.275 L 19.2766,33.7694 8.0346,26.275 V 40.001 H 3.3392 v -22.5 z m 38.955,-12.705 18.353,24.38 h -5.9015 l -5.132,-6.7948 h -14.639 l -5.0572,6.7948 h -5.8354 z m -3.799,12.89 h 7.5966 l -3.7984,-5.0644 z m 54.166,-11.126 h 4.6952 v 22.5 L 86.1142,25.489 V 40 H 81.4188 V 17.5 l 27.18,14.196 V 17.185 Z m 27.713,-1.764 18.353,24.38 h -5.9015 l -5.132,-6.7948 h -14.639 l -5.0572,6.7948 h -5.8354 z m -3.799,12.89 h 7.5966 l -3.7984,-5.0644 z m 54.547,0.478 c -0.0398,2.7314 -3.1e-4,8.8604 4.7e-4,8.9216 l 0.0154,2.3398 h -15.796 c -4.7468,0 -8.7176,-1.0623 -11.483,-3.0715 -2.7712,-2.0134 -4.2972,-4.934 -4.2972,-8.224 0,-2.7283 1.0293,-5.1928 2.9771,-7.126 2.7887,-2.7683 7.2208,-4.2116 12.82,-4.1692 3.4152,0.02512 13.333,2.73e-4 13.433,0 l 2.3244,-0.006 0.0118,4.6492 -2.3244,0.006 c -0.1002,2.73e-4 -10.041,0.02539 -13.479,0 -4.2752,-0.03375 -7.648,0.9702 -9.5112,2.8196 -1.0641,1.0562 -1.6035,2.3435 -1.6035,3.8266 0,4.0992 4.2652,6.646 11.132,6.646 h 11.12 c -0.005,-1.2739 -0.009,-2.879 -0.005,-4.3216 h -8.9542 v -4.6491 h 13.654 z m 38.635,-6.887 -27.18,3.9e-5 v 4.3726 l 18.128,0.0675 -0.0173,4.6956 -18.111,-0.0675 v 4.3564 h 27.18 v 4.6954 h -31.875 v -22.815 h 31.875 v 4.6951 z m 22.622,6.224 15.938,-10.625 v 22.5 h -4.6954 V 26.275 l -11.242,7.4944 -11.242,-7.4944 v 13.726 h -4.6954 v -22.5 z m 54.498,-6.224 -27.18,3.9e-5 v 4.3726 l 18.128,0.0675 -0.0173,4.6956 -18.111,-0.0675 v 4.3564 h 27.18 v 4.6954 h -31.875 v -22.815 h 31.875 v 4.6951 z m 33.864,-4.717 h 4.6952 v 22.5 L 314.1942,25.489 V 40 h -4.6954 V 17.5 l 27.18,14.196 V 17.185 Z m 11.3805,-0.235 h 31.875 v 4.6954 h -13.591 v 18.186 h -4.6951 v -18.186 h -13.589 V 16.95 Z m 61.9375,5.059 c -0.43632,0.24117 -0.88236,0.64612 -0.88236,1.8193 0,0.91448 0.29558,1.4144 1.0547,1.7822 0.76772,0.37195 1.6239,0.39914 1.6671,0.4002 l 17.067,0.06672 c 2.9656,0 7.3912,1.8316 7.3912,6.8776 0,5.046 -4.1128,6.8776 -6.8776,6.8776 h -24.997 v -4.6954 h 24.977 c 0.2048,-0.0071 0.81636,-0.08422 1.3204,-0.36305 0.43656,-0.24144 0.88256,-0.64636 0.88256,-1.8193 0,-0.91448 -0.29558,-1.4144 -1.0547,-1.7822 -0.7654,-0.37094 -1.6208,-0.39894 -1.6686,-0.40024 l -17.056,-0.07586 v 0.0091 c -2.975,0 -7.4008,-1.8316 -7.4008,-6.8776 0,-5.046 4.1128,-6.8776 6.8776,-6.8776 h 24.997 v 4.6954 h -24.976 c -0.20457,0.0071 -0.81668,0.08422 -1.321,0.36305 z m 64.824,-5.119 0.0335,2.3475 c 0.0366,2.5258 -0.98144,4.978 -2.8667,6.9048 -1.7693,1.8086 -5.0244,3.9321 -10.734,4.4284 l -0.0735,9.2524 -4.6952,-0.03219 0.073,-9.1988 c -4.4648,-0.36281 -8.18,-1.8598 -10.617,-4.3144 -1.9467,-1.9608 -2.9982,-4.4612 -2.9608,-7.0404 l 0.0343,-2.3474 4.6948,0.06828 -0.034,2.3474 c -0.0191,1.3246 0.53336,2.5918 1.5982,3.664 1.9606,1.9747 5.3816,3.0474 9.6268,3.014 4.3352,-0.03164 7.7912,-1.1413 9.7316,-3.1248 1.0183,-1.0406 1.5464,-2.2692 1.5279,-3.553 l -0.034,-2.3474 z m 12.336,5.119 c -0.43632,0.24117 -0.88236,0.64612 -0.88236,1.8193 0,0.91448 0.29558,1.4144 1.0547,1.7822 0.76772,0.37195 1.6239,0.39914 1.6671,0.4002 l 17.067,0.06672 c 2.9656,0 7.3912,1.8316 7.3912,6.8776 0,5.046 -4.1128,6.8776 -6.8776,6.8776 h -24.997 v -4.6954 h 24.977 c 0.2048,-0.0071 0.81636,-0.08422 1.3204,-0.36305 0.43656,-0.24144 0.88256,-0.64636 0.88256,-1.8193 0,-0.91448 -0.29558,-1.4144 -1.0547,-1.7822 -0.7654,-0.37094 -1.6208,-0.39894 -1.6686,-0.40024 l -17.056,-0.07586 v 0.0091 c -2.975,0 -7.4008,-1.8316 -7.4008,-6.8776 0,-5.046 4.1128,-6.8776 6.8776,-6.8776 h 24.997 v 4.6954 h -24.976 c -0.20457,0.0071 -0.81668,0.08422 -1.321,0.36305 z m 32.9825,-5.059 h 31.875 v 4.6954 h -13.591 v 18.186 h -4.6951 v -18.186 h -13.589 V 16.95 Z m 70.4755,4.952 -27.18,3.9e-5 v 4.3726 l 18.128,0.0675 -0.0173,4.6956 -18.111,-0.0675 v 4.3564 h 27.18 v 4.6954 h -31.875 v -22.815 h 31.875 v 4.6951 z m 22.622,6.224 15.938,-10.625 v 22.5 h -4.6954 V 26.275 l -11.242,7.4944 -11.242,-7.4944 v 13.726 h -4.6954 v -22.5 z"
       id="path16" />
  </g>
</svg>
